
<svg version="1.1" id="tv" xmlns="http://www.w3.org/2000/svg" xmlns:xlink="http://www.w3.org/1999/xlink" x="0px" y="0px"
	  viewBox="0 0 500 500" enable-background="new 0 0 500 500" xml:space="preserve">
<g>
	<path fill="#FFFFFF" stroke="#FFFFFF" stroke-miterlimit="10" d="M368.846,225.94c0,0-0.653,1.247,1.151,1.857
		c1.805,0.611,2.354,0.802,5.307-0.283c0,0-2.804-2.686-6.804-1.484V226"/>
	<g>
		<path fill="#F3FF00" stroke="#F3FF00" stroke-miterlimit="10" d="M411.929,243.683c0,0,32.152,12.007,24.827,35.118
			c0,0-4.273,4.768-8.752,4.564c-4.476-0.203-8.343-4.07-7.936-9.768c0,0-0.203,3.663-1.832,3.663c-1.627,0-3.052-2.85-1.627-6.716
			c1.424-3.866-4.681-7.326-4.681-7.326l-6.58-2.307c0,0,0.327,1.914,0.761,4.945c1.335,9.312,3.679,29.176,0.644,36.473
			c0,0-11.444,8.236-21.247,0.648c-0.271-15.738-2.383-16.561-2.383-16.561c-1.603,0.271-1.628,16.818-1.628,16.818
			c-11.938,6.784-21.678-0.467-21.678-0.467c-3.196-10.018-0.053-41.857-0.053-41.857c-0.815-0.813-5.428,2.307-5.428,2.307
			s-5.087,3.053-5.154,9.361c-0.066,6.309-1.765,6.309-4.003,5.901c-2.238-0.408,0.204-4.681,0.204-4.681
			c-6.92,13.023-16.688,2.849-16.688,2.849c-7.325-17.094,24.035-31.424,24.035-31.424S359.628,239.612,411.929,243.683z"/>
		<path fill="#FFFFFF" stroke="#000000" stroke-miterlimit="10" d="M414.574,275.429"/>
		<ellipse fill="#F3FF00" stroke="#F3FF00" stroke-miterlimit="10" cx="382.717" cy="219.623" rx="36.113" ry="35.77"/>
		<path fill="#F8CAC4" stroke="#F8CAC4" stroke-miterlimit="10" d="M366.878,232.693c0,0-3.81,15.136-2.719,17.375
			c1.089,2.24,20.438,9.868,37.35,0.346c0,0,2.21-19.359-4.877-17.93L366.878,232.693z"/>
		<path fill="#130C2A" stroke="#130C2A" stroke-miterlimit="10" d="M401.509,250.414c10.745-5.682,15.259-15.495,15.259-15.495
			c2.383-2.622,7.774-48.624,7.774-48.624c-0.818,3.053-31.959,27.685-33.31,28.727c-1.352,1.042-4.125,6.322-4.125,6.322
			l-0.616,10.703c0,0,12.954,0.054,13.661,1.913C402.568,238.188,401.509,250.414,401.509,250.414z"/>
		<path fill="#130C2A" stroke="#130C2A" stroke-miterlimit="10" d="M364.346,250.007c-10.745-5.681-15.258-15.495-15.258-15.495
			c-2.384-2.622-7.774-48.624-7.774-48.624c0.817,3.052,31.958,27.684,33.309,28.727c1.351,1.042,4.125,6.321,4.125,6.321
			l0.617,11.553c0,0-10.581,0.19-12.486,0.203C365.716,237.663,364.346,250.007,364.346,250.007z"/>
		<polygon fill="#FC0000" points="357,279 408,279 408,282.145 357,282.348 		"/>
		<path fill="none" stroke="#000000" stroke-miterlimit="10" d="M407.451,282.145"/>
		<path fill="#2A88FE" stroke="#2A88FE" stroke-miterlimit="10" d="M408.5,285.491l-23.721,5.062l-1.555-4.11
			c0,0-1.406,3.111-1.497,4.072S357.5,285.39,357.5,285.39v-3.042l51-0.203V285.491z"/>
		<path fill="#2A88FE" stroke="#2A88FE" stroke-miterlimit="10" d="M334.94,257.243l14.92,11.613c0,0,0.545,9.422-2.508,9.828
			c-0.454,0.136-5.227,2.58-1.969-4.884c0,0-4.812,11.396-14.413,4.681S333.234,258.832,334.94,257.243z"/>
		<path fill="#2A88FE" stroke="#2A88FE" stroke-miterlimit="10" d="M420.068,273.598c0,0-0.075,13.2,11.866,8.839
			c11.944-4.363,4.794-22.124,1.348-23.418l-17.318,7.809c0,0,0.646,3.718,0.266,5.007c0,0-1.655,4.801,2.007,5.427
			c0,0,1.145,0.396,1.983-1.832"/>
		<path fill="#2A88FE" stroke="#2A88FE" stroke-miterlimit="10" d="M359.027,302.969c3.193,2.777,10.168,3.799,10.168,3.799
			c9.562,0.012,12.3-3.531,12.3-3.531l0.133-6.425l-22.971-1.208C358.657,295.604,358.173,302.225,359.027,302.969z"/>
		<path fill="#2A88FE" stroke="#2A88FE" stroke-miterlimit="10" d="M385.506,302.979c5.87,6.639,18.487,1.619,18.487,1.619
			c4.883-1.492,4.075-8.994,4.075-8.994l-22.812,1.005L385.506,302.979z"/>
		<polygon fill="#130C2A" stroke="#130C2A" stroke-miterlimit="10" points="359.338,265.857 370.143,268.103 359.027,270.139 		"/>
		<path fill="#FFFFFF" stroke="#000000" stroke-miterlimit="10" d="M394.225,268.922"/>
		<polygon fill="#130C2A" stroke="#130C2A" stroke-miterlimit="10" points="358.814,274.5 367.362,274.5 358.657,277.131 		"/>
		<polygon fill="#130C2A" stroke="#130C2A" stroke-miterlimit="10" points="405.751,263.434 392.799,265.857 406.25,266.851 		"/>
		<polygon fill="#130C2A" stroke="#130C2A" stroke-miterlimit="10" points="406.935,272.138 394.225,274.004 407.451,275.429 		"/>
		<polygon fill="#130C2A" stroke="#130C2A" stroke-miterlimit="10" points="392.799,253.98 396.663,259.019 398.099,252.096 		"/>
		<polygon fill="#130C2A" stroke="#130C2A" stroke-miterlimit="10" points="366.416,251.677 367.362,259.019 371.36,253.5 		"/>
		<path fill="#F8CAC4" stroke="#F8CAC4" stroke-miterlimit="10" d="M359.765,260.912c-4.818-0.219-9.904,7.944-9.904,7.944
			l-14.92-11.613c3.355-3.925,14.091-10.79,14.091-10.79L359.765,260.912z"/>
		<path fill="#F8CAC4" stroke="#F8CAC4" stroke-miterlimit="10" d="M416.362,245.678c0,0,12.592,4.89,16.92,13.34l-17.318,7.809
			l-4.035-3.608l-5.679-1.99L416.362,245.678z"/>
		<path fill="#130C2A" stroke="#130C2A" stroke-miterlimit="10" d="M353.13,240.5h-8.154l14.789,20.551l0.573-13.145
			C360.338,247.906,351.909,240.5,353.13,240.5z"/>
		<polygon fill="#130C2A" stroke="#130C2A" stroke-miterlimit="10" points="411.725,242.5 418.644,242.5 405.516,262.053 
			401.509,250.596 		"/>
		<path fill="#FFFFFF" stroke="#FFFFFF" stroke-miterlimit="10" d="M375.74,227.131"/>
		<path fill="#FFFFFF" stroke="#FFFFFF" stroke-miterlimit="10" d="M368.846,225.94c0,0-0.653,1.247,1.151,1.857
			c1.805,0.611,2.354,0.802,5.307-0.283c0,0-2.804-2.686-6.804-1.484V226"/>
		<path fill="#FFFFFF" stroke="#FFFFFF" stroke-miterlimit="10" d="M395.7,225.94c0,0,0.927,1.247-0.878,1.857
			c-1.805,0.611-2.765,0.802-5.718-0.283c0,0,3.396-2.686,6.396-1.484V226"/>
	</g>
	<path fill="#999999" stroke="#999999" stroke-miterlimit="10" d="M333.318,268.529c0,0-9.146,4.791-9.146,12.843"/>
	<path fill="#999999" stroke="#999999" stroke-miterlimit="10" d="M337.025,270.713c0,0-9.574,6.849-8.495,13.77"/>
	<path fill="#999999" stroke="#999999" stroke-miterlimit="10" d="M339.524,273.653c0,0-8.432,8.852-6.206,13.3"/>
	<path fill="#999999" stroke="#999999" stroke-miterlimit="10" d="M433.164,270.713c0,0,7.909,3.883,7.909,13.77"/>
	<path fill="#999999" stroke="#999999" stroke-miterlimit="10" d="M428.963,273.653c0,0,8.263,7.121,6.974,13.3"/>
	<path fill="#999999" stroke="#999999" stroke-miterlimit="10" d="M424.761,275.952c0,0,7.316,5.069,6.749,12.237"/>
</g>
</svg>
