<svg version="1.1" id='mike' xmlns="http://www.w3.org/2000/svg" xmlns:xlink="http://www.w3.org/1999/xlink" x="0px" y="0px"
	 viewBox="0 0 500 500" enable-background="new 0 0 500 500" xml:space="preserve">
<g>
	<g>
		<path fill="#A07A67" stroke="#A07A67" stroke-miterlimit="10" d="M141.957,113.031c0,0,31.506,11.765,24.327,34.411
			c0,0-4.188,4.672-8.574,4.473c-4.388-0.199-8.176-3.988-7.776-9.571c0,0-0.2,3.589-1.795,3.589s-2.991-2.792-1.595-6.581
			c1.395-3.789-4.587-7.179-4.587-7.179l-6.446-2.259c0,0,0.319,1.874,0.745,4.844c1.307,9.126,3.603,28.588,0.629,35.738
			c0,0-11.213,8.071-20.819,0.635c-0.266-15.42-2.333-16.226-2.333-16.226c-1.571,0.266-1.596,16.48-1.596,16.48
			c-11.698,6.647-21.242-0.458-21.242-0.458c-3.131-9.817-0.052-41.014-0.052-41.014c-0.797-0.798-5.317,2.259-5.317,2.259
			s-4.985,2.991-5.05,9.172c-0.066,6.182-1.729,6.182-3.922,5.783c-2.194-0.399,0.199-4.586,0.199-4.586
			c-6.78,12.762-16.351,2.792-16.351,2.792c-7.179-16.75,23.549-30.792,23.549-30.792S90.711,109.043,141.957,113.031z"/>
		<path fill="#FFFFFF" stroke="#000000" stroke-miterlimit="10" d="M144.549,144.138"/>
		<ellipse fill="#A07A67" stroke="#A07A67" stroke-miterlimit="10" cx="113.333" cy="89.456" rx="35.385" ry="35.05"/>
		<path fill="none" stroke="#000000" stroke-miterlimit="10" d="M137.57,150.718"/>
		<path fill="#FFFFFF" stroke="#000000" stroke-miterlimit="10" d="M124.608,137.762"/>
		<path stroke="#000000" stroke-miterlimit="10" d="M77.949,87.448l5.734-13.092c0,0,25.356,6.934,43.096,2.728
			c0,0,0.544-6.819,2.727-7.092c0,0-1.637,6.546,0,6.819c0,0,10.839-1.056,13.092-2.182l5.722,9.547c0,0-3.153-27.897-34.985-29.769
			C113.333,54.407,82.268,54.361,77.949,87.448z"/>
		<polygon fill="#FFFFFF" stroke="#FFFFFF" stroke-miterlimit="10" points="73.629,120.535 85.526,132.173 81.116,137.762 
			66.772,124.506 71.955,119.359 		"/>
		<path fill="#C1272D" stroke="#C1272D" stroke-miterlimit="10" d="M66.772,124.506c0,0-20.917,12.854-7.458,22.4
			c13.459,9.546,14.872-2.728,17.438-4.364c0,0-3.993,7.091,1.196,6.818c5.188-0.273,2.352-6.159,2.527-8.016l0.64-3.584
			L66.772,124.506z"/>
		<polygon fill="#FFFFFF" stroke="#FFFFFF" stroke-miterlimit="10" points="155.299,130.355 143.293,133.068 144.514,139.528 
			168.508,135.523 167.348,128.56 		"/>
		<path fill="#C1272D" stroke="#C1272D" stroke-miterlimit="10" d="M168.508,135.523c0,0,8.945,21.83-7.508,23.076
			c-16.453,1.246-11.339-10.001-12.696-12.727c0,0-0.232,8.135-4.538,5.228c-4.306-2.907,1.158-6.49,1.964-8.171l-1.181-3.402
			L168.508,135.523z"/>
		<polygon fill="#FFFFFF" stroke="#FFFFFF" stroke-miterlimit="10" points="89.5,143.5 137.359,143.5 137.717,148.5 89.5,148.5 		
			"/>
		<path stroke="#000000" stroke-miterlimit="10" d="M137.653,147.236l0.654,11.489l-22.959,1.518l-1.624-5.33
			c0,0-1.301,5.871-1.254,5.319c0.048-0.552-22.971,0.033-22.971,0.033v-12.972L137.653,147.236z"/>
		<path stroke="#000000" stroke-miterlimit="10" d="M115.977,167.904l21.74-0.364c0,0,0.656,4.929-10.869,6.74
			C126.848,174.28,113.973,175.739,115.977,167.904z"/>
		<path stroke="#000000" stroke-miterlimit="10" d="M90.212,167.5h22.049c0,0,2.268,6.911-9.474,6.618
			C102.788,174.118,89.657,175.5,90.212,167.5z"/>
		<path fill="#A07A67" stroke="#A07A67" stroke-miterlimit="10" d="M148.318,85.811c0,0,0.279-3.545,2.462-2.728
			c2.181,0.819,2.33,9.556-2.109,8.188L148.318,85.811z"/>
		<path fill="#A07A67" stroke="#A07A67" stroke-miterlimit="10" d="M77.949,91.416c0,0-1.085,0.395-3.539,0
			c-2.455-0.396,0-6.423,0-6.423c1.091-1.91,3.656,1.616,3.656,1.616L77.949,91.416z"/>
	</g>
	<g>
		<polygon fill="#404040" stroke="#404040" stroke-miterlimit="10" points="114.8,52.404 119.968,50.492 117.516,54.316 		"/>
		<g>
			<g>
				<path fill="none" stroke="#000000" stroke-miterlimit="10" d="M132.326,25.375"/>
				<path fill="#BFBFBF" stroke="#BFBFBF" stroke-miterlimit="10" d="M132.309,25.375c0,0-6.603-1.248-4.364,3.853
					c0,0,4.988,8.125-1.195,15.544c0,0-6.642,6.169-8.034,6.385c0,0-17.685,3.376-18.439,3.568c0,0-11.06,5.054-10.926,5.154
					l-1.69,0.107l4.119-4.2l-0.797-0.478l0.335-0.771l-2.348-0.748c0,0,5.236-3.269,5.909-3.183c0,0,5.01-2.104,6.171-3.966
					c0,0,11.251-12.211,16.05-13.151c0,0,3.907-2.948,3.768-5.167c0,0-0.674-6.66,5.541-7.434c0,0,2.477,0.74,2.803,1.87
					L132.309,25.375z"/>
				<polygon fill="#FFFFFF" stroke="#FFFFFF" stroke-miterlimit="10" points="129.236,22.77 128.152,24.244 130.812,24.077 				"/>
				<path fill="#808080" stroke="#808080" stroke-miterlimit="10" d="M117.516,33.153c0,0,10.939,0.009,11.657,7.377
					c0,0,1.622-6.745-0.635-10.122c0,0-2.251-4.443,0.104-4.804l3.667-0.23l-3.072-2.605c0,0-1.885-2.436-3.466-1.842
					s-3.905,1.768-4.383,3.741c-0.477,1.973-0.955,6.759-1.871,6.527L117.516,33.153z"/>
				<path fill="#404040" stroke="#404040" stroke-miterlimit="10" d="M105.596,42.009c0,0,13.081,9.737,16.056,7.209
					c0,0-0.909,1.274-1.684,1.779c-0.48,0.314-1.093,0.59-1.95,0.869c-1.19,0.388-2.839,0.217-4.89,0.557
					c-1.029,0.171-2.182,0.329-3.472,0.469l-9.381,1.833L89.35,59.879l-1.69,0.107l4.119-4.2l-0.797-0.478l-0.074-0.902
					l-2.959-0.938c0,0,11.702-5.231,12.401-6.03C101.048,46.64,105.596,42.009,105.596,42.009z"/>
				<circle fill="#FFFFFF" stroke="#FFFFFF" stroke-miterlimit="10" cx="125.861" cy="23.686" r="0.638"/>
			</g>
			<line stroke="#000000" stroke-miterlimit="10" x1="117.5" y1="55" x2="117.5" y2="58"/>
		</g>
		<path fill="#404040" stroke="#404040" stroke-miterlimit="10" d="M114.8,52.404"/>
	</g>
	<path fill="#CD5257" stroke="#CD5257" stroke-miterlimit="10" d="M146.239,52.622c0,0-4.304-8.259-7.783-3.191
		c-3.479,5.068,9.66,11.906,9.66,11.906s10.939-11.906,5.282-12.938C147.74,47.366,146.239,52.622,146.239,52.622z"/>
	<path fill="#CD5257" stroke="#CD5257" stroke-miterlimit="10" d="M158.157,63.627c0,0-2.143-4.111-3.874-1.588
		c-1.732,2.522,4.808,5.926,4.808,5.926s5.447-5.926,2.629-6.44C158.904,61.01,158.157,63.627,158.157,63.627z"/>
	<path fill="#CD5257" stroke="#CD5257" stroke-miterlimit="10" d="M159.686,41.962c0,0-2.426-4.655-4.387-1.798
		c-1.962,2.856,5.444,6.711,5.444,6.711s6.167-6.711,2.979-7.293C160.532,39,159.686,41.962,159.686,41.962z"/>
	<path fill="none" stroke="#000000" stroke-width="2" stroke-miterlimit="10" d="M89.284,105.372c0,0,21.33,14.167,48.586,0"/>
</g>
</svg>
