
<svg version="1.1" id="spawn" xmlns="http://www.w3.org/2000/svg" xmlns:xlink="http://www.w3.org/1999/xlink" x="0px" y="0px"
	viewBox="0 0 500 500" enable-background="new 0 0 500 500" xml:space="preserve">
<g>
	<g>
		<path fill="#400000" stroke="#400000" stroke-miterlimit="10" d="M164.5,333.883c0,0,6.139,10.565-15.986,41.295
			c0,0,17.86-36.121-36.233-45.781c0,0-47.698-3.55-36.014,45.072c-20.397-32.737-15.58-39.734-15.98-37.318
			C60.287,337.15,91.384,317.146,164.5,333.883"/>
		<polyline fill="#FF0000" stroke="#FF0000" stroke-miterlimit="10" points="87.515,390.404 83.518,386.216 69.028,386.721 
			83.518,448.5 118.993,448.5 87.515,392.252 		"/>
		<path fill="#FF0000" stroke="#FF0000" stroke-miterlimit="10" d="M151.496,386.116l-9.436,0.439c0,0,20.284-35.364,19.219-53.392
			c0,0,5.75-1.172,11.183,2.748"/>
		<path fill="#FF0000" stroke="#FF0000" stroke-miterlimit="10" d="M137.227,390.51l4.31-4.414c0,0,6.728-3.098,9.959,0.021
			l1.19,4.388l-8.679,58.844l-40.387-3.476L137.227,390.51z"/>
		<path stroke="#000000" stroke-miterlimit="10" d="M144.051,386.308c0,0,34.688,12.953,26.784,37.886c0,0-4.61,5.146-9.441,4.926
			c-4.83-0.22-9.001-4.392-8.562-10.538c0,0-0.22,3.951-1.976,3.951c-1.756,0-3.293-3.073-1.756-7.244
			c1.537-4.172-5.049-7.904-5.049-7.904l-7.099-2.487c0,0,0.353,2.063,0.821,5.334c1.438,10.049,3.968,31.477,0.692,39.349
			c0,0-12.344,8.887-22.921,0.698c-0.293-16.978-2.569-17.864-2.569-17.864c-1.731,0.292-1.757,18.145-1.757,18.145
			c-12.88,7.317-23.387-0.504-23.387-0.504c-3.447-10.81-0.057-45.157-0.057-45.157c-0.878-0.878-5.855,2.487-5.855,2.487
			s-5.488,3.293-5.56,10.1c-0.073,6.806-1.904,6.806-4.319,6.366c-2.415-0.439,0.22-5.05,0.22-5.05
			c-7.465,14.051-18.003,3.074-18.003,3.074c-7.902-18.441,25.929-33.902,25.929-33.902S87.628,381.917,144.051,386.308z"/>
		<path fill="#FFFFFF" stroke="#000000" stroke-miterlimit="10" d="M146.904,420.557"/>
		<ellipse stroke="#000000" stroke-miterlimit="10" cx="112.536" cy="360.353" rx="38.959" ry="38.589"/>
		<path fill="none" stroke="#000000" stroke-miterlimit="10" d="M139.221,427.802"/>
		<path fill="#FFFFFF" stroke="#000000" stroke-miterlimit="10" d="M124.95,413.537"/>
		<g>
			<path fill="#FFFFFF" stroke="#FFFFFF" stroke-miterlimit="10" d="M120.492,374.356l-1.992,3.196v-25.057l4.686,6.518
				c9.788-5.547-2.834-25.131-2.834-25.131s43.951,23.148,0.039,58.059C120.39,391.941,134.062,375.661,120.492,374.356z"/>
			<path stroke="#000000" stroke-miterlimit="10" d="M120.251,365.547l8.625-3.139C128.876,362.408,129.254,371.094,120.251,365.547
				"/>
		</g>
		<g>
			<path fill="#FFFFFF" stroke="#000000" stroke-miterlimit="10" d="M104.294,374.356l2.206,3.196v-25.057l-4.899,6.518
				c-9.788-5.547,2.727-25.131,2.727-25.131s-43.898,23.148,0.013,58.059C104.341,391.941,90.725,375.661,104.294,374.356z"/>
			<path stroke="#000000" stroke-miterlimit="10" d="M104.32,365.547l-8.625-3.14C95.695,362.407,95.318,371.093,104.32,365.547"/>
		</g>
		<polygon fill="#FFFFFF" stroke="#FFFFFF" stroke-miterlimit="10" points="87.272,410.777 101.429,398.941 111.999,419.228 
			124.566,398.941 137.773,410.23 138.228,413.537 126.39,405.905 111.999,422.458 100.007,403.1 87.069,413.537 		"/>
		<path fill="#800000" stroke="#800000" stroke-miterlimit="10" d="M86.324,429.396l5.541-4.24l19.689,15.035l1.436-7.778
			c0,0,1.872,6.19,2.022,7.778s24.212-12.39,24.212-12.39l-0.995-14.265l-11.839-7.632l-14.391,16.553L100.007,403.1l-12.818,10.438
			L86.324,429.396z"/>
		<polyline fill="#FFFFFF" stroke="#000000" stroke-miterlimit="10" points="115,443.5 139.896,443.5 139.732,444.5 115,444.5 		"/>
		<polygon fill="#FFFFFF" stroke="#000000" stroke-miterlimit="10" points="86.455,443.5 111.5,443.5 111.5,444.5 87.042,444.5 		
			"/>
		<path fill="#800000" stroke="#800000" stroke-miterlimit="10" d="M165.062,400.359c-0.219-0.191-18.158,9.172-18.158,9.172
			l2.399,4.006c0,0-3.017,9.962,1.553,8.995c4.571-0.966,1.976-3.951,1.976-3.951s-1.336,14.96,13.493,10.779
			C178.399,425.956,173.06,407.358,165.062,400.359z"/>
		<path fill="#800000" stroke="#800000" stroke-miterlimit="10" d="M61.596,400.356l15.467,13.181c0,0,0,9.824-3.486,10.47
			C69.29,424.8,72.26,418.8,72.26,418.8s-6.36,15.916-16.541,6.029C47.243,416.596,53.06,407.504,61.596,400.356z"/>
		<g>
			<path fill="#FFFFFF" stroke="#FFFFFF" stroke-miterlimit="10" d="M115.783,423.672c1.821,0.212,3.035-5.37,3.035-5.37
				c1.516-5.765-7.282-7.618-7.282-7.618c-8.8,2.089-7.888,7.618-7.888,7.618s2.123,5.582,4.854,5.37c0,0,0.303,2.822,0.607,3.732
				c0.303,0.909,7.584,0,7.584,0L115.783,423.672z"/>
			<line fill="#FFFFFF" stroke="#000000" stroke-miterlimit="10" x1="110.018" y1="416.179" x2="107.591" y2="419.246"/>
			<line fill="#FFFFFF" stroke="#000000" stroke-miterlimit="10" x1="107.591" y1="416.179" x2="110.018" y2="419.246"/>
			<line fill="#FFFFFF" stroke="#000000" stroke-miterlimit="10" x1="115.176" y1="416.179" x2="113.355" y2="419.246"/>
			<line fill="#FFFFFF" stroke="#000000" stroke-miterlimit="10" x1="113.355" y1="416.179" x2="115.176" y2="419.246"/>
			<line fill="#FFFFFF" stroke="#000000" stroke-miterlimit="10" x1="110.5" y1="425" x2="110.5" y2="428"/>
			<line fill="#FFFFFF" stroke="#000000" stroke-miterlimit="10" x1="111.5" y1="425" x2="111.5" y2="428"/>
			<line fill="#FFFFFF" stroke="#000000" stroke-miterlimit="10" x1="113.5" y1="425" x2="113.5" y2="428"/>
			<line fill="#FFFFFF" stroke="#000000" stroke-miterlimit="10" x1="115.5" y1="425" x2="115.5" y2="427"/>
		</g>
		<path fill="#FF0000" stroke="#FF0000" stroke-miterlimit="10" d="M53.06,335.912l16.7,50.204l13.758,0.1l-1.208-1.455
			c0,0-17.422-26.601-22.023-47.61"/>
		<path fill="#FFFFFF" stroke="#000000" stroke-miterlimit="10" d="M141.537,386.116"/>
		<g>
			<path fill="#FFFFFF" stroke="#000000" stroke-miterlimit="10" d="M92.657,398.718c1.171,0.138,1.953-3.456,1.953-3.456
				c0.977-3.711-4.687-4.904-4.687-4.904c-5.665,1.346-5.078,4.904-5.078,4.904s1.368,3.594,3.125,3.456
				c0,0,0.195,1.817,0.391,2.403s4.883,0,4.883,0L92.657,398.718z"/>
			<line fill="#FFFFFF" stroke="#000000" stroke-miterlimit="10" x1="88.946" y1="393.895" x2="87.384" y2="395.869"/>
			<line fill="#FFFFFF" stroke="#000000" stroke-miterlimit="10" x1="87.384" y1="393.895" x2="88.946" y2="395.869"/>
			<line fill="#FFFFFF" stroke="#000000" stroke-miterlimit="10" x1="92.266" y1="393.895" x2="91.095" y2="395.869"/>
			<line fill="#FFFFFF" stroke="#000000" stroke-miterlimit="10" x1="91.095" y1="393.895" x2="92.266" y2="395.869"/>
			<line fill="#FFFFFF" stroke="#000000" stroke-miterlimit="10" x1="89.5" y1="399" x2="89.5" y2="401"/>
			<line fill="#FFFFFF" stroke="#000000" stroke-miterlimit="10" x1="89.5" y1="399" x2="89.5" y2="401"/>
			<line fill="#FFFFFF" stroke="#000000" stroke-miterlimit="10" x1="91.5" y1="399" x2="91.5" y2="401"/>
			<line fill="#FFFFFF" stroke="#FFFFFF" stroke-miterlimit="10" x1="91.5" y1="399" x2="91.5" y2="401"/>
		</g>
		<g>
			<path fill="#FFFFFF" stroke="#FFFFFF" stroke-miterlimit="10" d="M137.666,398.979c1.315,0.153,2.193-3.883,2.193-3.883
				c1.098-4.166-5.264-5.507-5.264-5.507c-6.36,1.511-5.701,5.507-5.701,5.507s1.534,4.036,3.508,3.883c0,0,0.22,2.039,0.439,2.698
				c0.219,0.657,5.482,0,5.482,0L137.666,398.979z"/>
			<line fill="#FFFFFF" stroke="#000000" stroke-miterlimit="10" x1="133.498" y1="393.561" x2="131.744" y2="395.778"/>
			<line fill="#FFFFFF" stroke="#000000" stroke-miterlimit="10" x1="131.744" y1="393.561" x2="133.498" y2="395.778"/>
			<line fill="#FFFFFF" stroke="#000000" stroke-miterlimit="10" x1="137.227" y1="393.561" x2="135.911" y2="395.778"/>
			<line fill="#FFFFFF" stroke="#000000" stroke-miterlimit="10" x1="135.911" y1="393.561" x2="137.227" y2="395.778"/>
			<line fill="#FFFFFF" stroke="#000000" stroke-miterlimit="10" x1="133.5" y1="400" x2="133.5" y2="401"/>
			<line fill="#FFFFFF" stroke="#000000" stroke-miterlimit="10" x1="135.5" y1="400" x2="135.5" y2="401"/>
			<line fill="#FFFFFF" stroke="#000000" stroke-miterlimit="10" x1="136.5" y1="400" x2="136.5" y2="401"/>
			<line fill="#FFFFFF" stroke="#000000" stroke-miterlimit="10" x1="137.5" y1="400" x2="137.5" y2="401"/>
		</g>
		<polyline fill="#FF0000" stroke="#FF0000" stroke-miterlimit="10" points="137.227,390.203 152.686,390.504 143.506,384.307 		"/>
		<path fill="#400000" stroke="#400000" stroke-miterlimit="10" d="M44.348,333.883"/>
		<polyline fill="#FF0000" stroke="#FF0000" stroke-miterlimit="10" points="87.515,390.504 80.022,382.571 75.325,390.504 		"/>
	</g>
	<polygon fill="#FFFFFF" stroke="#FFFFFF" stroke-miterlimit="10" points="64.319,397.957 61.596,400.356 77.063,413.537 
		78.544,410.7 	"/>
	<polygon fill="#FFFFFF" stroke="#FFFFFF" stroke-miterlimit="10" points="165.062,400.359 146.904,409.531 144.051,407.384 
		162.731,397.957 	"/>
	<g opacity="0.8">
		<path opacity="0.7" fill="#48FA0D" stroke="#48FA0D" stroke-miterlimit="10" d="M96.759,367.076
			c-1.036-4.761-6.327-7.643-9.126-11.344c-3.327-4.397-5.754-12.725,0.072-15.839c2.076-1.109,4.548-0.409,6.3-1.705
			c2.938-2.17,3.173-8.488,2.157-11.594c-1.173-3.591-8.838-8.409-5.117-12.434c0.749,1.366,1.398,1.979,2.583,2.877
			c1.526,4.568,7.451,5.339,8.316,10.894c1.109,7.113-8.621,12.045-8.718,19.841c-0.069,5.508,3.861,4.4,7.418,7.268
			c2.64,2.128,3.313,4.458,3.577,7.581c0.259,3.031,1.063,3.198-1.771,4.441c-1.84,0.808-4.276,0.621-5.251-0.867"/>
		<path opacity="0.7" fill="#48FA0D" stroke="#48FA0D" stroke-miterlimit="10" d="M121.717,366.048
			c-1.55-5.583-6.161-10.654-1.198-15.327c4.006-3.773,10.182-6.543,6.653-13.715c-1.708-3.47-6.048-4.078-7.923-7.406
			c-1.217-2.161-1.473-7.231-1.053-9.722c0.853-5.05,11.716-5.964,16.527-5.423c-5.729-1.449-12.431,5.573-12.125,9.324
			c0.491,6.033,4.591,8.918,7.521,14.004c2.484,4.312,2.603,10.046,0.34,14.342c-1.879,3.568-7.48,7.797-1.772,10.916
			c0.815,3.803-5.075,5.446-7.41,3.007"/>
		<path opacity="0.7" fill="#247D07" stroke="#48FA0D" stroke-miterlimit="10" d="M129.169,362.461c0,0,0.378,8.686-8.625,3.139"/>
		<path opacity="0.7" fill="#123F03" stroke="#48FA0D" stroke-miterlimit="10" d="M95.99,362.461c0,0-0.378,8.686,8.625,3.139"/>
	</g>
</g>
</svg>
