
<svg version="1.1" id="raiden" xmlns="http://www.w3.org/2000/svg" xmlns:xlink="http://www.w3.org/1999/xlink" x="0px" y="0px"
	  viewBox="0 0 500 500" enable-background="new 0 0 500 500" xml:space="preserve">
<g>
	<path fill="#F9FDFD" stroke="#F8FCFD" stroke-miterlimit="10" d="M281.12,249.394c0,0,28.429,10.27,21.952,30.039
		c0,0-3.778,4.079-7.738,3.904c-3.958-0.173-7.376-3.481-7.017-8.355c0,0-0.179,3.134-1.618,3.134c-1.44,0-2.7-2.437-1.44-5.744
		c1.261-3.308-4.139-6.266-4.139-6.266l-5.817-1.973c0,0,0.29,1.637,0.673,4.229c1.181,7.967,3.253,24.957,0.568,31.199
		c0,0-10.117,7.044-18.785,0.553c-0.24-13.461-2.105-14.165-2.105-14.165c-1.418,0.232-1.439,14.387-1.439,14.387
		c-10.557,5.803-19.167-0.399-19.167-0.399c-2.825-8.57-0.047-35.803-0.047-35.803c-0.719-0.697-4.798,1.973-4.798,1.973
		s-4.498,2.61-4.557,8.007c-0.06,5.396-1.561,5.396-3.54,5.048c-1.979-0.349,0.181-4.004,0.181-4.004
		c-6.118,11.14-14.755,2.438-14.755,2.438c-6.477-14.623,21.25-26.879,21.25-26.879S234.88,245.913,281.12,249.394z"/>
	<path fill="#FFFFFF" stroke="#000000" stroke-miterlimit="10" d="M283.461,276.549"/>
	<ellipse fill="#EEC7A9" stroke="#EEC7A9" stroke-miterlimit="10" cx="255.294" cy="228.815" rx="31.929" ry="30.596"/>
	<path fill="none" stroke="#000000" stroke-miterlimit="10" d="M277.163,282.293"/>
	<path fill="#FFFFFF" stroke="#000000" stroke-miterlimit="10" d="M265.467,270.982"/>
	<path fill="#DF8348" stroke="#DF8348" stroke-miterlimit="10" d="M206.487,219.5h101.512c0,0-45.78-31.64-52.708-32.994
		C248.364,185.153,206.59,217.5,206.487,219.5z"/>
	<path fill="#FFFFFF" stroke="#000000" stroke-miterlimit="10" d="M306.577,216.083"/>
	<path stroke="#000000" stroke-miterlimit="10" d="M229.76,219.5c0,0-2.104,18.426,0.415,21.405s10.314,12.111,25.125,13.466
		c0,0,21.918-1.417,26.1-15.767l-0.337-19.104h4.713c0,0,4.58,9.405-1.441,21.619c0,0-8.678,18.587-29.042,18.079
		c0,0-23.015,0.828-31.065-23.826c0,0-3.008-2.871-0.121-15.871H229.76z"/>
	<path fill="#6EB1E4" stroke="#6EB1E4" stroke-miterlimit="10" d="M281.063,249.444l-5.788,14.571c0,0,1.65,11.484,1.888,13.484
		h-43.266c0,0,0.334-10.227,1.103-13.56l-8.271-12.332l6.08-2.212l7.438,11.649l28.826,0.825l8.09-12.767L281.063,249.444z"/>
	<polygon stroke="#000000" stroke-miterlimit="10" points="233.5,282.5 277.104,282.5 277.163,277.5 233.5,277.5 	"/>
	<rect x="242.5" y="282.5" fill="#6EB1E4" stroke="#000000" stroke-miterlimit="10" width="25" height="10"/>
	<path fill="#F9FDFD" stroke="#F8FCFD" stroke-miterlimit="10" d="M235,264.133c-3.288-0.728-8.271,5.729-8.271,5.729l-10.36-11.695
		c0,0,8.308-5.473,10.36-6.461L235,264.133z"/>
	<path fill="#F9FDFD" stroke="#F8FCFD" stroke-miterlimit="10" d="M275.275,264.207l7.101,2.716l11.658-10.309
		c0,0-11.057-8.235-12.971-7.17L275.275,264.207z"/>
	<polygon stroke="#000000" stroke-miterlimit="10" points="298.566,260.783 284.654,269.143 282.376,266.923 294.034,256.614 	"/>
	<polygon stroke="#000000" stroke-miterlimit="10" points="226.729,269.861 225.685,272.17 212.063,261.972 216.37,258.166 	"/>
	<path fill="#AA6A37" stroke="#AA6A37" stroke-miterlimit="10" d="M206.487,219.5c0,0,14.368,6.599,16.368,6.599l1.252-6.599
		H206.487z"/>
	<path fill="#AA6A37" stroke="#AA6A37" stroke-miterlimit="10" d="M307.999,219.5c0,0-18.697,7.412-20.556,6.599l-1.667-6.599
		H307.999z"/>
	<path stroke="#000000" stroke-miterlimit="10" d="M274.566,253.209l-5.493,8.673l-28.826-0.812L235,252.869
		C235,252.869,253.896,263.498,274.566,253.209z"/>
	<polygon stroke="#000000" stroke-miterlimit="10" points="228.34,251.084 236.581,263.305 235,277.5 233.665,277.5 
		234.807,264.977 226.729,251.608 	"/>
	<polygon stroke="#000000" stroke-miterlimit="10" points="281.049,249.444 275.267,264.016 277.163,277.5 275.245,277.5 
		273.271,263.473 279.955,249.253 	"/>
	<polyline stroke="#000000" stroke-miterlimit="10" points="243.5,283 243.5,292.155 242.5,292.044 242.5,283 	"/>
	<polygon stroke="#000000" stroke-miterlimit="10" points="265.5,282.5 265.5,292.155 267.5,292.044 267.5,282.5 	"/>
	<path fill="#EEC7A9" stroke="#7FF6FF" stroke-miterlimit="10" d="M225.672,272.366c0,0,1.376,7.595-2.474,7.064
		s-2.74-1.398-1.865-2.773c0,0-6.229,8.679-11.725,2.517c-5.496-6.163-4.366-11.919,2.666-17.282L225.672,272.366z"/>
	<path fill="#EEC7A9" stroke="#7FF6FF" stroke-miterlimit="10" d="M298.566,260.783l-13.912,8.359c0,0,0.186,9.282,2.045,8.973
		c1.857-0.309,1.552-1.945,1.618-3.134c0,0,1.617,10.746,10.358,7.622C307.416,279.48,305.052,266.359,298.566,260.783z"/>
	<path stroke="#000000" stroke-miterlimit="10" d="M235.059,297.5h18.815c0,0,2.368,5.142-9.408,5.371
		C232.691,303.101,235.059,297.5,235.059,297.5z"/>
	<path stroke="#000000" stroke-miterlimit="10" d="M257.591,297.5h19.513c0,0,0.552,5.251-9.756,5.426S257.591,297.5,257.591,297.5z
		"/>
</g>
</svg>
