<svg version="1.1" id="torch" xmlns="http://www.w3.org/2000/svg" xmlns:xlink="http://www.w3.org/1999/xlink" x="0px" y="0px"
	 viewBox="0 0 500 500" enable-background="new 0 0 500 500" xml:space="preserve">
<g>
	<path fill="#0099FF" stroke="#0099FF" stroke-miterlimit="10" d="M403.149,110.517c0,0,27.289,10.124,21.071,29.611
		c0,0-3.626,4.021-7.428,3.848c-3.799-0.171-7.081-3.43-6.735-8.235c0,0-0.173,3.089-1.556,3.089c-1.38,0-2.59-2.402-1.38-5.663
		c1.208-3.259-3.973-6.177-3.973-6.177l-5.586-1.944c0,0,0.279,1.614,0.647,4.169c1.131,7.854,3.122,24.601,0.545,30.754
		c0,0-9.712,6.944-18.034,0.545c-0.229-13.27-2.021-13.962-2.021-13.962c-1.361,0.229-1.383,14.181-1.383,14.181
		c-10.132,5.72-18.399-0.394-18.399-0.394c-2.712-8.447-0.044-35.293-0.044-35.293c-0.69-0.686-4.606,1.944-4.606,1.944
		s-4.317,2.574-4.374,7.895c-0.058,5.317-1.499,5.317-3.398,4.974c-1.899-0.343,0.173-3.945,0.173-3.945
		c-5.872,10.98-14.163,2.401-14.163,2.401c-6.219-14.412,20.398-26.495,20.398-26.495S358.759,107.086,403.149,110.517z"/>
	<path fill="#FFFFFF" stroke="#000000" stroke-miterlimit="10" d="M405.394,137.285"/>
	<ellipse fill="#FFCC99" stroke="#FFCC99" stroke-miterlimit="10" cx="378.356" cy="90.231" rx="30.65" ry="30.16"/>
	<path fill="none" stroke="#000000" stroke-miterlimit="10" d="M399.349,142.948"/>
	<path fill="#FFFFFF" stroke="#000000" stroke-miterlimit="10" d="M388.122,131.798"/>
	<path fill="#FFFF00" stroke="#FFFF00" stroke-miterlimit="10" d="M348.469,83.52c0,0-7.783-28.922,16.723-28.372
		c0,0,20.127-2.475,34.157,1.647c0,0,7.422-6.044,3.292-8.517c0,0,19.702,15.109-14.519,27.197c0,0-26.487-12.011-27.875-9.577
		C360.247,65.898,349.131,74.347,348.469,83.52z"/>
	<path fill="#FFFF00" stroke="#FFFF00" stroke-miterlimit="10" d="M407.119,63.005c0,0,0.754,8.891-1.726,13.016
		c0,0-4.631-6.543-4.683-6.509C400.659,69.548,407.119,63.005,407.119,63.005z"/>
	<path fill="#FFCC99" stroke="#FFCC99" stroke-miterlimit="10" d="M368.589,117.221"/>
	<path fill="#FFCC99" stroke="#FFCC99" stroke-miterlimit="10" d="M378.355,127.121"/>
	<path fill="#E4E4E4" stroke="#E4E4E4" stroke-miterlimit="10" d="M339.509,120.392l12.39,8.803c0,0-1.665,12.528-4.192,10.786
		c0,0-2.665,0.875-1.677-2.695c0,0-5.182,9.749-13.523,1.028C332.506,138.313,327.042,130.969,339.509,120.392z"/>
	<path fill="#E4E4E4" stroke="#E4E4E4" stroke-miterlimit="10" d="M407.14,131.167l14.566-7.113c0,0,9.812,13.175,2.586,18.9
		c0,0-12.032,7.345-14.217-5.669c0,0-0.278,2.365-1.573,1.544C408.502,138.829,405.305,138.781,407.14,131.167z"/>
	<polygon fill="#006699" stroke="#006699" stroke-miterlimit="10" points="358.5,140.5 399.608,140.5 399.349,142.5 358.5,142.5 	
		"/>
	<ellipse fill="#FFFFFF" stroke="#FFFFFF" stroke-miterlimit="10" cx="389.858" cy="127.96" rx="4.971" ry="4.961"/>
	<polyline fill="#FFFFFF" stroke="#000000" stroke-width="2" stroke-miterlimit="10" points="390,130 390,125.512 388.122,129 
		391,129 	"/>
	<path opacity="0.4" fill="#FF1500" stroke="#FF1500" stroke-miterlimit="10" d="M405.394,137.285"/>
	<path opacity="0.4" fill="#FF1500" stroke="#FF1500" stroke-miterlimit="10" d="M399.349,142.948"/>
	<path opacity="0.4" fill="#FF1500" stroke="#FF1500" stroke-miterlimit="10" d="M388.122,131.798"/>
	<path opacity="0.4" fill="#FF1500" stroke="#FF1500" stroke-miterlimit="10" d="M378.355,60.071"/>
</g>
</svg>
