<?xml version="1.0" encoding="utf-8"?>
<!-- Generator: Adobe Illustrator 16.0.0, SVG Export Plug-In . SVG Version: 6.00 Build 0)  -->
<!DOCTYPE svg PUBLIC "-//W3C//DTD SVG 1.1//EN" "http://www.w3.org/Graphics/SVG/1.1/DTD/svg11.dtd">
<svg version="1.1" id="Layer_1" xmlns="http://www.w3.org/2000/svg" xmlns:xlink="http://www.w3.org/1999/xlink" x="0px" y="0px"
	 width="100%" height="100%" viewBox="0 0 100 100" enable-background="new 0 0 100 100" xml:space="preserve">
<circle fill="#FFFFFF" stroke="#FFFFFF" stroke-width="2" stroke-miterlimit="10" cx="50" cy="50" r="37.625"/>
<line fill="#007194" stroke="#000000" stroke-miterlimit="10" x1="33" y1="54.5" x2="68" y2="54.5"/>
<path fill="#007194" stroke="#000000" stroke-miterlimit="10" d="M50.125,28.177"/>
<path fill="#007194" stroke="#007194" stroke-miterlimit="10" d="M32.24,54.125c-0.016,0.062,0.845,13.316,17.493,12.536
	c0,0,17.348,0.875,17.785-12.536"/>
<polygon fill="#007194" stroke="#007194" stroke-miterlimit="10" points="43.343,66.193 40.986,75.5 34.5,75.5 34.5,73.125 
	40.008,73.513 41.183,65.475 "/>
<polyline fill="#007194" stroke="#007194" stroke-miterlimit="10" points="55.031,66.355 56.438,75.5 61.625,75.5 62.561,72.867 
	58.614,72.689 56.293,66.5 56,66.5 "/>
<polyline fill="#007194" stroke="#007194" stroke-miterlimit="10" points="67.064,56.109 74.412,55.027 78.596,51.5 82.5,51.5 
	82.5,55.125 79.221,54.854 76.795,56.896 78.888,59.5 81.625,59.5 82.125,62.5 78.625,62.5 75.389,59.164 66.388,58.999 
	67.092,57.109 "/>
<path fill="#007194" stroke="#007194" stroke-miterlimit="10" d="M32.857,57.232l-6.473-8.155c0,0-0.279-4.837,0.013-5.275
	s-3.201-4.095-3.201-4.095l-2.475,1.597l3.208,3.249L23.64,48.5h-3.015l-3.837-3.767l-2.187,1.489l3.207,4.243l5.921,0.445
	l10.396,8.845"/>
<path fill="#007194" stroke="#007194" stroke-miterlimit="10" d="M44.485,54.5c0,0-7.532-3.354-1.142-9.33
	c0,0-9.132-9.736-0.715-11.922c0,0,5.647-3.482,6.376,11.386c0,0,1.021-12.808,7.58-11.721s0.309,10.649-1.959,12.253
	c0,0,6.35,4.333,0,9.333H44.485z"/>
<path fill="#007194" stroke="#000000" stroke-miterlimit="10" d="M49.004,43.773"/>
<path fill="none" stroke="#007194" stroke-width="2" stroke-miterlimit="10" d="M32.625,55h35c0,0,3.592-32.715-17.5-30.383
	S33.01,41,32.625,55z"/>
</svg>
